<svg width="107" height="32" viewBox="0 0 107 32" fill="none" xmlns="http://www.w3.org/2000/svg">
<path d="M16.1257 7.6739C16.3786 7.59711 16.5927 7.52491 16.8116 7.46655C18.4363 7.03036 20.0873 6.76158 21.7708 6.67634C22.9385 6.61721 24.0954 6.65099 25.2313 6.93667C25.6521 7.04265 26.0742 7.17704 26.4656 7.36211C27.5791 7.89199 28.2155 8.81354 28.528 9.97546C28.7081 10.6466 28.7731 11.3324 28.7723 12.0259V24.5079L23.8951 24.5495C23.6445 24.5502 23.4628 24.4527 23.312 24.2568C23.0777 23.9527 22.8279 23.6602 22.5851 23.363C22.5495 23.3507 22.5139 23.3384 22.4784 23.3261C22.4158 23.4152 22.364 23.5143 22.2897 23.5926C21.5326 24.3943 20.593 24.809 19.4919 24.8605C18.8253 24.8919 18.1625 24.8659 17.5107 24.6984C16.1945 24.3598 15.2921 23.5603 14.7778 22.3171C14.5304 21.7188 14.3889 21.0945 14.3255 20.4547C14.2311 19.4995 14.2272 18.5464 14.412 17.5965C14.8134 15.5353 16.0205 14.1945 18.0326 13.5617C18.9691 13.2676 19.9327 13.1593 20.9109 13.1524C21.2984 13.1501 21.6858 13.1531 22.0731 13.1509C22.19 13.1501 22.3067 13.1386 22.4622 13.1294C22.4706 12.7008 22.5287 12.29 22.4003 11.8883C22.3044 11.5881 22.0678 11.413 21.7692 11.3623C21.439 11.3063 21.0988 11.2625 20.7655 11.2748C19.5398 11.3193 18.3451 11.5743 17.1565 11.8569C16.9153 11.9145 16.6755 11.9775 16.4342 12.0343C16.3592 12.0519 16.2811 12.055 16.1698 12.0696L16.1257 7.6739ZM22.4799 16.119C22.1342 16.046 21.8327 16.0983 21.5318 16.1466C20.9851 16.2342 20.6402 16.5459 20.4949 17.0751C20.4662 17.1795 20.4438 17.2855 20.4237 17.3922C20.2729 18.174 20.2768 18.9603 20.3774 19.7459C20.4067 19.9771 20.4701 20.2121 20.5636 20.4263C20.764 20.8863 21.1955 21.1175 21.6958 21.0645C21.804 21.053 21.9123 21.0346 22.0183 21.0092C22.4482 20.9071 22.4792 20.8695 22.4799 20.4317C22.4807 19.0917 22.4807 17.7516 22.4807 16.4108C22.4799 16.3232 22.4799 16.2349 22.4799 16.119Z" fill="#193A8C"/>
<path d="M64.8139 24.5517C64.8139 26.6567 64.8139 28.7247 64.8139 30.8189C64.6708 30.835 64.5564 30.8595 64.442 30.8595C62.5837 30.8619 60.7262 30.8619 58.868 30.8603C58.7706 30.8603 58.6731 30.8465 58.5578 30.8381C58.5408 30.7483 58.5215 30.6737 58.5146 30.5977C58.5076 30.5194 58.5123 30.4403 58.5123 30.3612C58.5123 22.7339 58.5123 15.1075 58.5115 7.4803C58.5115 6.92662 58.5146 6.98959 59.0211 6.98883C60.4223 6.98575 61.8228 6.99113 63.224 6.97884C63.521 6.97654 63.7328 7.06869 63.9099 7.30522C64.104 7.56555 64.3275 7.80361 64.5556 8.07314C64.6569 8.00178 64.7551 7.93954 64.8464 7.86889C65.9569 7.01033 67.2213 6.61714 68.6209 6.65093C69.1978 6.66475 69.7685 6.74231 70.3268 6.89437C71.2262 7.13934 71.9299 7.65617 72.4673 8.40642C73.0295 9.1913 73.3543 10.0759 73.5755 11.0044C73.8856 12.3068 73.99 13.6315 74.024 14.9647C74.0649 16.5674 73.9845 18.1586 73.6327 19.7283C73.413 20.7074 73.0728 21.6396 72.5184 22.4851C71.6113 23.8667 70.3067 24.6001 68.6781 24.7943C67.4749 24.9372 66.2801 24.9072 65.1031 24.5824C65.0274 24.5617 64.9469 24.5647 64.8139 24.5517ZM64.8039 16.0751C64.8054 16.0751 64.807 16.0751 64.8093 16.0751C64.8093 17.3967 64.8085 18.7176 64.8101 20.0392C64.8108 20.3395 64.8395 20.3733 65.134 20.4294C65.3483 20.4701 65.5632 20.5139 65.7806 20.5307C66.2531 20.5691 66.6699 20.4394 66.9668 20.0531C67.0797 19.9064 67.1686 19.7367 67.2436 19.5662C67.5321 18.9065 67.6489 18.2062 67.686 17.4951C67.7555 16.1857 67.7888 14.8748 67.6952 13.5639C67.6597 13.0617 67.5855 12.5679 67.4648 12.0772C67.2807 11.3285 66.9382 11.2432 66.3025 11.2647C66.2824 11.2655 66.2631 11.2701 66.243 11.2709C65.8865 11.2855 65.5733 11.4399 65.2532 11.5735C64.8425 11.7439 64.8039 11.7954 64.8039 12.23C64.8039 13.5117 64.8039 14.7935 64.8039 16.0751Z" fill="#193A8C"/>
<path d="M91.0978 30.5954C91.0978 29.0549 91.0978 27.559 91.0978 26.0284C91.3414 26.0691 91.5626 26.1091 91.7845 26.1436C92.6078 26.2711 93.4295 26.4201 94.2575 26.5146C94.636 26.5575 95.0297 26.5076 95.4138 26.4708C95.7068 26.4423 95.9208 26.2565 96.0829 26.02C96.36 25.6168 96.4558 25.1538 96.5045 24.6799C96.5141 24.5878 96.4742 24.4872 96.4414 24.3951C94.7821 19.7498 93.122 15.1052 91.462 10.4607C91.097 9.43938 90.7297 8.41802 90.364 7.39585C90.3241 7.28604 90.2945 7.17315 90.249 7.0257C90.3568 7.01111 90.4399 6.9896 90.5221 6.9896C92.619 6.98807 94.7151 6.98807 96.8119 6.9896C96.8886 6.9896 96.9669 7.00496 97.0699 7.01572C97.2016 7.809 97.3326 8.59538 97.4627 9.38098C97.5929 10.1689 97.7199 10.9575 97.8492 11.7455C97.9778 12.5234 98.1103 13.3013 98.2381 14.0792C98.3682 14.8671 98.4936 15.6559 98.6262 16.4438C98.7563 17.224 98.8705 18.008 99.0246 18.7837C99.0502 18.7829 99.0765 18.7822 99.1021 18.7814C99.1236 18.7007 99.1564 18.6216 99.1667 18.5395C99.2721 17.6287 99.3752 16.7171 99.4774 15.8063C99.59 14.7973 99.7009 13.7875 99.8127 12.7783C99.9197 11.8177 100.026 10.8577 100.133 9.89706C100.233 9.00546 100.331 8.11314 100.433 7.22229C100.457 7.01495 100.487 6.99114 100.729 6.9896C101.534 6.98576 102.338 6.985 103.143 6.98423C104.305 6.98346 105.468 6.98423 106.63 6.98423C106.737 6.98423 106.844 6.98423 106.999 6.98423C106.959 7.20616 106.936 7.38971 106.889 7.56556C106.281 9.8525 105.669 12.1387 105.058 14.4248C104.046 18.2162 103.035 22.0083 102.02 25.7988C101.775 26.7158 101.458 27.6074 100.994 28.4413C100.419 29.4719 99.6411 30.2883 98.5287 30.7521C97.87 31.0263 97.1785 31.1499 96.4702 31.1852C95.2141 31.2482 93.9701 31.1168 92.7324 30.9218C92.282 30.8511 91.8349 30.7598 91.3861 30.6745C91.2911 30.6561 91.1984 30.6231 91.0978 30.5954Z" fill="#193A8C"/>
<path d="M12.3999 6.36651C12.2414 6.33425 12.1154 6.31428 11.9925 6.2828C10.865 5.99636 9.72973 5.75829 8.56128 5.72528C8.28443 5.7176 8.00448 5.73525 7.72998 5.76981C6.64812 5.90728 6.16481 6.71515 6.21352 7.72269C6.24291 8.33396 6.48727 8.85621 6.9675 9.24325C7.69904 9.83453 8.44062 10.4136 9.18843 10.9849C9.81014 11.4603 10.452 11.9088 10.9995 12.474C12.062 13.5721 12.6629 14.8868 12.8763 16.3851C13.0604 17.6768 13.0302 18.9631 12.7356 20.2364C12.2105 22.5033 10.7783 23.8971 8.53573 24.4953C7.39514 24.8002 6.22821 24.8847 5.05279 24.8778C3.60671 24.8693 2.17919 24.7134 0.784143 24.321C0.576898 24.2627 0.378158 24.1759 0.174778 24.1021C0.165499 23.8964 0.149259 23.6905 0.148486 23.4848C0.146166 22.2322 0.146939 20.9789 0.146939 19.7264C0.146939 19.6196 0.146939 19.5137 0.146939 19.3678C0.446208 19.4216 0.706039 19.4676 0.966641 19.5144C1.93327 19.6896 2.89836 19.87 3.86577 20.039C4.35218 20.1234 4.83859 20.0781 5.31417 19.9622C6.47954 19.6772 7.03787 18.5292 6.5445 17.4403C6.33261 16.9726 5.99931 16.5916 5.61266 16.2622C5.06207 15.7938 4.49292 15.3476 3.93845 14.883C3.33914 14.3808 2.7205 13.8969 2.15908 13.354C0.746251 11.9871 0.0572357 10.2976 0.00542426 8.34549C-0.0185482 7.4447 0.0309434 6.55081 0.275308 5.67689C0.831318 3.68945 2.10263 2.35093 4.02662 1.60756C4.98938 1.23588 5.99081 1.04927 7.02008 1.01164C8.69974 0.950973 10.3515 1.12452 11.9661 1.60219C12.0613 1.6306 12.1556 1.65978 12.2507 1.68973C12.3575 1.72352 12.4146 1.79494 12.4154 1.9086C12.4162 1.97771 12.4185 2.04683 12.4185 2.11594C12.4185 3.41837 12.4193 4.7208 12.4177 6.02324C12.4185 6.12844 12.4077 6.23365 12.3999 6.36651Z" fill="#193A8C"/>
<path d="M77.1484 7.6739C77.4013 7.59711 77.6154 7.52491 77.8343 7.46655C79.459 7.03036 81.1101 6.76158 82.7934 6.67634C83.9616 6.61721 85.1178 6.65099 86.2541 6.93667C86.6749 7.04265 87.0973 7.17704 87.4886 7.36211C88.6017 7.89199 89.2381 8.81354 89.5503 9.97546C89.7308 10.6466 89.7955 11.3324 89.7947 12.0259V24.5079L84.9182 24.5495C84.6683 24.5502 84.4862 24.4527 84.3353 24.2568C84.1013 23.9527 83.8514 23.6602 83.6086 23.363C83.5727 23.3507 83.5376 23.3384 83.5016 23.3261C83.4393 23.4152 83.3874 23.5143 83.3132 23.5926C82.5562 24.3943 81.6164 24.809 80.5152 24.8605C79.8488 24.8919 79.186 24.8659 78.5341 24.6984C77.2179 24.3598 76.3155 23.5603 75.8013 22.3171C75.5538 21.7188 75.4123 21.0945 75.3489 20.4547C75.2546 19.4995 75.2506 18.5464 75.4355 17.5965C75.8368 15.5353 77.0439 14.1945 79.0561 13.5617C79.993 13.2676 80.956 13.1593 81.9342 13.1524C82.3214 13.1501 82.7095 13.1531 83.0968 13.1509C83.2134 13.1501 83.33 13.1386 83.4857 13.1294C83.4944 12.7008 83.5519 12.29 83.4234 11.8883C83.3276 11.5881 83.0912 11.413 82.7926 11.3623C82.4628 11.3063 82.1226 11.2625 81.7888 11.2748C80.5631 11.3193 79.3686 11.5743 78.18 11.8569C77.9387 11.9145 77.699 11.9775 77.4577 12.0343C77.3827 12.0519 77.3046 12.055 77.1933 12.0696L77.1484 7.6739ZM83.5032 16.119C83.1575 16.046 82.8564 16.0983 82.5554 16.1466C82.0084 16.2342 81.6635 16.5459 81.5181 17.0751C81.4894 17.1795 81.467 17.2855 81.4471 17.3922C81.2962 18.174 81.3001 18.9603 81.4008 19.7459C81.4303 19.9771 81.4934 20.2121 81.5868 20.4263C81.7872 20.8863 82.2192 21.1175 82.7191 21.0645C82.8277 21.053 82.9355 21.0346 83.0417 21.0092C83.4721 20.9071 83.5024 20.8695 83.5032 20.4317C83.504 19.0917 83.504 17.7516 83.504 16.4108C83.5032 16.3232 83.5032 16.2349 83.5032 16.119Z" fill="#193A8C"/>
<path d="M56.5885 17.8152C53.728 17.8152 50.9101 17.8152 48.0952 17.8152C47.9553 18.1201 47.9963 18.4058 48.0582 18.683C48.2151 19.3834 48.5979 19.8679 49.3457 20.0315C50.1445 20.2058 50.9472 20.2096 51.746 20.1037C52.916 19.9478 54.0799 19.7435 55.2468 19.5607C55.3728 19.5407 55.4997 19.5277 55.6226 19.5123C55.6945 19.7397 55.7224 23.2369 55.6613 23.9771C55.5739 24.0125 55.4773 24.0601 55.3759 24.0923C53.3073 24.7505 51.1862 24.9832 49.0232 24.838C48.1502 24.7797 47.2856 24.6599 46.4465 24.3965C44.6092 23.819 43.3247 22.6448 42.577 20.8839C42.2081 20.0139 41.9992 19.1038 41.8724 18.1715C41.7123 16.9935 41.707 15.8093 41.7658 14.6259C41.8268 13.3995 42.0279 12.1962 42.4633 11.0389C43.3433 8.69434 45.0182 7.28823 47.4944 6.83131C48.9273 6.56637 50.3587 6.56407 51.7808 6.91425C53.4527 7.32587 54.6715 8.30498 55.4602 9.82018C55.9683 10.7955 56.2358 11.8429 56.4029 12.9203C56.5544 13.8987 56.597 14.8824 56.5901 15.8707C56.5846 16.5012 56.5885 17.1325 56.5885 17.8152ZM50.7021 14.4409C50.7206 14.3825 50.7368 14.3548 50.7361 14.3272C50.7206 13.5485 50.7183 12.7691 50.6804 11.9911C50.6619 11.6079 50.5559 11.2324 50.3896 10.8799C50.2698 10.625 50.0849 10.4345 49.8051 10.3715C49.3573 10.2709 48.7185 10.3477 48.4115 10.9628C48.3063 11.1725 48.2221 11.3991 48.1703 11.6279C47.9816 12.4619 47.9908 13.3127 47.9978 14.1613C48.0001 14.4431 48.0156 14.4578 48.3079 14.4585C49.0333 14.4608 49.7587 14.4593 50.4847 14.4585C50.5528 14.4585 50.6216 14.4478 50.7021 14.4409Z" fill="#193A8C"/>
<path d="M43.13 4.71634C42.7927 4.66488 42.502 4.61036 42.2082 4.57734C41.4882 4.49594 40.7683 4.4107 40.0468 4.3531C39.0005 4.27016 38.6594 4.92675 38.6386 5.6755C38.627 6.08865 38.6363 6.5018 38.6363 6.9449C38.794 6.95873 38.9293 6.98023 39.0647 6.981C39.8998 6.98561 40.7343 6.98561 41.5694 6.98714C41.687 6.98714 41.8037 6.98714 41.9723 6.98714C41.6939 8.32416 41.424 9.6212 41.1495 10.9421C40.3182 10.9421 39.507 10.9421 38.6594 10.9421C38.651 11.1333 38.6363 11.2976 38.6363 11.4612C38.6347 14.4323 38.6355 17.4027 38.6355 20.3739C38.6355 21.5581 38.6355 22.743 38.6355 23.9272C38.6355 24.1038 38.6355 24.2797 38.6355 24.4194C38.5976 24.464 38.5922 24.4725 38.5845 24.4786C38.5775 24.4847 38.569 24.4917 38.5597 24.4932C38.511 24.5009 38.4623 24.5124 38.4128 24.5124C36.4447 24.5131 34.4774 24.5124 32.5093 24.5109C32.4707 24.5109 32.432 24.4978 32.3578 24.4855C32.3508 24.3134 32.3384 24.1391 32.3384 23.9656C32.3369 21.439 32.3376 18.9126 32.3376 16.3852C32.3376 14.7073 32.3376 13.0294 32.3376 11.3514C32.3376 11.2354 32.3376 11.1194 32.3376 10.9782C31.5667 10.8875 30.8212 10.9805 30.0897 10.9244C29.9799 10.6364 29.9365 7.80884 30.0286 7.01018C30.1252 7.00327 30.2297 6.98868 30.334 6.98791C30.8808 6.98407 31.4275 6.98561 31.9734 6.981C32.0794 6.98023 32.1853 6.96487 32.3122 6.95489C32.3214 6.79516 32.333 6.65923 32.3361 6.52407C32.3531 5.86364 32.3516 5.20167 32.3895 4.54278C32.4258 3.91844 32.5897 3.31791 32.8465 2.74502C33.4017 1.50863 34.3823 0.764498 35.6544 0.361328C36.5545 0.0756529 37.4817 0.00653801 38.4197 0.000394456C39.8998 -0.0103567 41.3498 0.199292 42.7812 0.552546C42.8949 0.58096 43.0055 0.624732 43.1268 0.663898C43.13 2.0078 43.13 3.33558 43.13 4.71634Z" fill="#193A8C"/>
</svg>
